<svg xmlns="http://www.w3.org/2000/svg" viewBox="0 0 1920 1080" preserveAspectRatio="xMidYMid slice">
  <defs>
    <linearGradient id="sky" x1="0" y1="0" x2="1" y2="1">
      <stop offset="0" stop-color="#102a46"/>
      <stop offset="0.42" stop-color="#31506b"/>
      <stop offset="0.68" stop-color="#c69258"/>
      <stop offset="1" stop-color="#061123"/>
    </linearGradient>
    <linearGradient id="water" x1="0" y1="0" x2="0" y2="1">
      <stop offset="0" stop-color="#173d59"/>
      <stop offset="1" stop-color="#031124"/>
    </linearGradient>
    <filter id="soft" x="-20%" y="-20%" width="140%" height="140%">
      <feGaussianBlur stdDeviation="18"/>
    </filter>
  </defs>
  <rect width="1920" height="1080" fill="url(#sky)"/>
  <path d="M0 380 C210 280 300 350 480 260 C710 145 900 325 1090 225 C1320 100 1500 240 1920 115 L1920 610 L0 610 Z" fill="#0b1b31" opacity="0.94"/>
  <path d="M0 510 C260 430 390 480 610 410 C800 350 980 455 1190 380 C1460 285 1660 390 1920 320 L1920 690 L0 690 Z" fill="#102f45" opacity="0.72"/>
  <rect y="565" width="1920" height="515" fill="url(#water)"/>
  <g opacity="0.45" filter="url(#soft)">
    <ellipse cx="380" cy="560" rx="260" ry="28" fill="#ffd49a"/>
    <ellipse cx="1120" cy="615" rx="420" ry="34" fill="#d7e9ff"/>
  </g>
  <g opacity="0.64" fill="#e7f2ff">
    <rect x="695" y="468" width="24" height="170"/>
    <rect x="731" y="430" width="31" height="208"/>
    <rect x="776" y="488" width="22" height="150"/>
    <rect x="812" y="398" width="34" height="240"/>
    <rect x="858" y="455" width="29" height="183"/>
    <rect x="902" y="420" width="36" height="218"/>
    <rect x="950" y="365" width="28" height="273"/>
    <rect x="993" y="445" width="40" height="193"/>
    <rect x="1048" y="410" width="32" height="228"/>
    <rect x="1095" y="475" width="29" height="163"/>
    <rect x="1138" y="435" width="42" height="203"/>
    <rect x="1198" y="462" width="28" height="176"/>
  </g>
  <path d="M200 780 C520 690 680 715 960 680 C1240 646 1450 625 1760 545" fill="none" stroke="#b8d8e8" stroke-width="7" opacity="0.45"/>
  <path d="M210 795 C540 710 720 730 980 698 C1265 663 1465 640 1766 560" fill="none" stroke="#f8d38a" stroke-width="3" opacity="0.5"/>
  <rect width="1920" height="1080" fill="#031023" opacity="0.13"/>
</svg>
